<svg width="1012" height="901" viewBox="0 0 1012 901" fill="none" xmlns="http://www.w3.org/2000/svg">
<path fill-rule="evenodd" clip-rule="evenodd" d="M347.37 725.765L260.766 875.763L318.501 875.763L376.238 775.765L347.37 725.765Z" fill="#D24E3D"/>
<path d="M462.84 825.765L520.575 825.765L491.708 875.765L433.973 875.765L462.84 825.765Z" fill="#D24E3D"/>
<path d="M289.635 525.765L260.768 575.765L318.503 675.765L231.898 825.763L260.766 875.763L347.37 725.765L433.973 875.765L462.84 825.765L289.635 525.765Z" fill="#E3634E"/>
<path d="M347.37 525.765L289.635 525.765L462.84 825.765H520.575L347.37 525.765Z" fill="#EE9289"/>
<path fill-rule="evenodd" clip-rule="evenodd" d="M188.599 450.765L15.3945 450.763L44.2623 500.763L159.731 500.765L188.599 450.765Z" fill="#ED7A57"/>
<path d="M159.731 600.765L188.599 650.765L130.864 650.765L101.996 600.765L159.731 600.765Z" fill="#ED7A57"/>
<path d="M332.937 300.765L275.202 300.765L217.467 400.765L44.2622 400.763L15.3949 450.763L188.599 450.765L101.996 600.765L159.732 600.765L332.937 300.765Z" fill="#F4AC95"/>
<path d="M361.804 350.765L332.937 300.766L159.732 600.765L188.599 650.765L361.804 350.765Z" fill="#E15C42"/>
<path fill-rule="evenodd" clip-rule="evenodd" d="M347.369 175.764L260.769 25.7631L231.901 75.7634L289.634 175.764L347.369 175.764Z" fill="#E3634E"/>
<path d="M203.031 225.764L174.164 275.764L145.296 225.764L174.164 175.764L203.031 225.764Z" fill="#E3634E"/>
<path d="M549.442 225.764L520.574 175.764L405.104 175.764L318.504 25.763L260.769 25.763L347.369 175.764L174.164 175.764L203.031 225.764L549.442 225.764Z" fill="#EE9289"/>
<path d="M520.574 275.764L549.441 225.764L203.031 225.764L174.164 275.764L520.574 275.764Z" fill="#D24E3D"/>
<path fill-rule="evenodd" clip-rule="evenodd" d="M664.911 175.765L751.516 25.7675L693.78 25.7676L636.044 125.765L664.911 175.765Z" fill="#F4AC95"/>
<path d="M549.441 75.7655L491.706 75.7653L520.574 25.7655L578.309 25.7654L549.441 75.7655Z" fill="#F4AC95"/>
<path d="M722.646 375.765L751.514 325.765L693.779 225.766L780.383 75.767L751.516 25.7674L664.911 175.765L578.308 25.7651L549.441 75.7653L722.646 375.765Z" fill="#E15C42"/>
<path d="M664.911 375.766L722.646 375.765L549.441 75.7654L491.706 75.7654L664.911 375.766Z" fill="#ED7A57"/>
<path fill-rule="evenodd" clip-rule="evenodd" d="M823.684 450.766L996.888 450.768L968.02 400.768L852.551 400.766L823.684 450.766Z" fill="#EE9289"/>
<path d="M852.551 300.766L823.683 250.766L881.418 250.766L910.286 300.766L852.551 300.766Z" fill="#EE9289"/>
<path d="M679.345 600.766L737.08 600.766L794.815 500.766L968.02 500.768L996.887 450.769L823.683 450.766L910.286 300.766L852.551 300.766L679.345 600.766Z" fill="#D24E3D"/>
<path d="M650.478 550.766L679.345 600.765L852.55 300.766L823.683 250.766L650.478 550.766Z" fill="#E3634E"/>
<path fill-rule="evenodd" clip-rule="evenodd" d="M664.913 725.764L751.513 875.764L780.38 825.764L722.648 725.764L664.913 725.764Z" fill="#E15C42"/>
<path d="M809.25 675.764L838.118 625.764L866.986 675.764L838.118 725.764L809.25 675.764Z" fill="#E15C42"/>
<path d="M462.84 675.764L491.707 725.764L607.177 725.764L693.778 875.764L751.512 875.764L664.913 725.764L838.118 725.764L809.25 675.764L462.84 675.764Z" fill="#ED7A57"/>
<path d="M491.708 625.764L462.841 675.764L809.251 675.764L838.118 625.764L491.708 625.764Z" fill="#F4AC95"/>
</svg>
